
<svg width="25" height="25" viewBox="0 0 25 25" fill="none" xmlns="http://www.w3.org/2000/svg">
<path d="M22.334 11.834V14.934C22.334 17.1742 22.334 18.2943 21.898 19.1499C21.5145 19.9026 20.9026 20.5145 20.1499 20.898C19.2943 21.334 18.1742 21.334 15.934 21.334H8.73398C6.49377 21.334 5.37367 21.334 4.51802 20.898C3.76537 20.5145 3.15345 19.9026 2.76996 19.1499C2.33398 18.2943 2.33398 17.1742 2.33398 14.934V9.73398C2.33398 7.49377 2.33398 6.37367 2.76996 5.51802C3.15345 4.76537 3.76537 4.15345 4.51802 3.76996C5.37367 3.33398 6.49377 3.33398 8.73398 3.33398H12.834M19.334 8.33398V2.33398M16.334 5.33398H22.334M16.334 12.334C16.334 14.5431 14.5431 16.334 12.334 16.334C10.1248 16.334 8.33398 14.5431 8.33398 12.334C8.33398 10.1248 10.1248 8.33398 12.334 8.33398C14.5431 8.33398 16.334 10.1248 16.334 12.334Z" stroke="black" stroke-width="2" stroke-linecap="round" stroke-linejoin="round"/>
</svg>
