<svg width="24" height="24" viewBox="0 0 24 24" fill="none" xmlns="http://www.w3.org/2000/svg">
<path d="M12.7763 1.52838C12.5193 1.5094 12.2616 1.4999 12.0039 1.49988V0C12.2987 0.00014373 12.5934 0.0111503 12.8873 0.0329974L12.7763 1.52838ZM15.7821 2.20333C15.3013 2.0178 14.8075 1.86791 14.3047 1.75486L14.6332 0.290977C15.2077 0.419967 15.7731 0.590954 16.3221 0.803937L15.7821 2.20333ZM17.8369 3.26824C17.6225 3.12523 17.4029 2.99015 17.1785 2.86328L17.9179 1.55838C18.4308 1.84896 18.9215 2.17681 19.3863 2.5393L18.4639 3.72271C18.2606 3.56407 18.0514 3.41298 17.8369 3.26974V3.26824ZM20.5877 5.95303C20.2911 5.53153 19.9637 5.13248 19.6083 4.75913L20.6942 3.72421C21.0992 4.15167 21.4742 4.60914 21.8146 5.0891L20.5877 5.95303ZM21.7036 7.98087C21.6052 7.74308 21.4981 7.50894 21.3827 7.27893L22.7221 6.60398C22.9869 7.13057 23.2125 7.67601 23.397 8.23585L21.9721 8.70532C21.8915 8.46063 21.802 8.21899 21.7036 7.98087ZM22.4986 11.7411C22.4865 11.2256 22.4363 10.7118 22.3486 10.2037L23.826 9.94872C23.9265 10.5277 23.985 11.1156 24 11.7036L22.5001 11.7411H22.4986ZM22.3021 14.0479C22.3516 13.7929 22.3921 13.5394 22.4236 13.283L23.913 13.4674C23.8409 14.0526 23.7256 14.6317 23.568 15.1998L22.1221 14.7993C22.1911 14.5519 22.2511 14.3014 22.3021 14.0479ZM20.8742 17.6161C21.1502 17.1812 21.3932 16.7252 21.6032 16.2542L22.974 16.8617C22.7341 17.4016 22.4566 17.9206 22.1416 18.4186L20.8742 17.6161ZM19.4283 19.4235C19.6113 19.2405 19.7868 19.0515 19.9533 18.8565L21.0902 19.8359C20.8977 20.0592 20.697 20.2753 20.4887 20.4839L19.4283 19.4235Z" fill="#5D3BA4"/>
<path d="M12.0037 1.49988C10.2772 1.50001 8.57733 1.92592 7.0547 2.73989C5.53207 3.55387 4.23367 4.73078 3.27451 6.16639C2.31536 7.602 1.72504 9.252 1.55586 10.9702C1.38667 12.6885 1.64383 14.4219 2.30457 16.017C2.96531 17.6121 4.00922 19.0197 5.34386 20.115C6.67849 21.2103 8.26264 21.9596 9.95601 22.2965C11.6494 22.6333 13.3997 22.5474 15.0519 22.0463C16.7041 21.5451 18.2072 20.6443 19.4282 19.4235L20.4886 20.4839C19.0933 21.8799 17.3752 22.9103 15.4865 23.4837C13.5979 24.057 11.5969 24.1557 9.66102 23.7709C7.72512 23.3861 5.91401 22.5297 4.38816 21.2777C2.86232 20.0256 1.66886 18.4166 0.913516 16.593C0.158174 14.7695 -0.135724 12.7878 0.0578623 10.8236C0.251449 8.85929 0.926542 6.9731 2.02333 5.33211C3.12011 3.69111 4.60473 2.34598 6.34563 1.41589C8.08653 0.485805 10.03 -0.000523057 12.0037 4.22154e-07V1.49988Z" fill="#5D3BA4"/>
<path d="M11.2538 4.49902C11.4527 4.49902 11.6435 4.57804 11.7841 4.71868C11.9248 4.85932 12.0038 5.05007 12.0038 5.24896V13.0634L16.8754 15.8471C17.0431 15.9483 17.1645 16.111 17.2138 16.3005C17.2631 16.49 17.2363 16.6913 17.1392 16.8614C17.042 17.0314 16.8822 17.1567 16.6939 17.2104C16.5056 17.2642 16.3037 17.2421 16.1315 17.149L10.8819 14.1493C10.7671 14.0837 10.6717 13.989 10.6053 13.8746C10.5389 13.7603 10.5039 13.6305 10.5039 13.4983V5.24896C10.5039 5.05007 10.5829 4.85932 10.7236 4.71868C10.8642 4.57804 11.055 4.49902 11.2538 4.49902Z" fill="#5D3BA4"/>
</svg>
