<svg width="164" height="55" viewBox="0 0 164 55" fill="none" xmlns="http://www.w3.org/2000/svg">
<path d="M53.2516 44.7716C52.4275 44.7716 51.6875 44.5975 51.0315 44.2495C50.3756 43.9015 49.8626 43.4293 49.4926 42.8327C49.1226 42.2195 48.9376 41.5318 48.9376 40.7695C48.9376 39.4935 49.459 38.5158 50.5017 37.8363C51.5445 37.1569 53.0414 36.8172 54.9924 36.8172H56.7584V36.32C56.7584 35.7566 56.5734 35.3175 56.2033 35.0026C55.8333 34.6877 55.3288 34.5303 54.6896 34.5303C53.9328 34.5303 53.2012 34.6546 52.4948 34.9032C51.8052 35.1517 51.2334 35.4915 50.7792 35.9223L49.2403 33.9089C49.9635 33.2792 50.8129 32.782 51.7884 32.4174C52.7807 32.0363 53.7814 31.8457 54.7906 31.8457C56.5061 31.8457 57.86 32.2434 58.8523 33.0389C59.8446 33.8177 60.3408 34.8866 60.3408 36.2455V41.8384C60.3408 42.2361 60.3744 42.7084 60.4417 43.2553C60.509 43.8021 60.5847 44.2247 60.6687 44.523H57.4648C57.3638 44.291 57.2882 44.0838 57.2377 43.9015C57.1872 43.7193 57.1452 43.4624 57.1116 43.131H57.0611C56.1192 44.2247 54.8494 44.7716 53.2516 44.7716ZM54.2103 42.1615C54.9503 42.1615 55.5558 41.9792 56.0267 41.6147C56.5145 41.2335 56.7584 40.7529 56.7584 40.1729V39.1289H54.8915C54.101 39.1289 53.4955 39.2698 53.075 39.5515C52.6546 39.8332 52.4443 40.2392 52.4443 40.7695C52.4443 41.2169 52.5957 41.5649 52.8984 41.8135C53.2012 42.0455 53.6385 42.1615 54.2103 42.1615Z" fill="#976FEA"/>
<path d="M67.1317 44.7716C65.988 44.7716 64.9873 44.5478 64.1296 44.1004C63.2718 43.653 62.6747 43.0564 62.3384 42.3107L64.5584 40.8192C64.8612 41.2335 65.2396 41.5649 65.6937 41.8135C66.1478 42.0455 66.6103 42.1615 67.0813 42.1615C67.6027 42.1615 68.0315 42.0372 68.3679 41.7887C68.7043 41.5401 68.8725 41.2252 68.8725 40.8441C68.8725 40.6452 68.822 40.4878 68.7211 40.3718C68.637 40.2392 68.4604 40.1066 68.1913 39.9741C67.9222 39.8415 67.4933 39.6592 66.9047 39.4272C65.3237 38.8141 64.2137 38.2092 63.5745 37.6126C62.9522 36.9995 62.6411 36.2455 62.6411 35.3506C62.6411 34.29 63.0784 33.4449 63.953 32.8151C64.8275 32.1689 65.988 31.8457 67.4345 31.8457C68.4268 31.8457 69.3098 32.028 70.0834 32.3926C70.8739 32.7406 71.5215 33.2543 72.026 33.9337L69.9573 35.45C69.3855 34.7872 68.6034 34.4557 67.6111 34.4557C67.157 34.4557 66.8038 34.5303 66.5515 34.6794C66.316 34.8286 66.1983 35.0357 66.1983 35.3009C66.1983 35.4997 66.2487 35.6655 66.3497 35.798C66.4506 35.914 66.6524 36.0549 66.9551 36.2206C67.2747 36.3698 67.8045 36.5852 68.5445 36.8669C69.5873 37.2646 70.3862 37.6458 70.9412 38.0103C71.4962 38.3749 71.8831 38.7643 72.1017 39.1786C72.3372 39.5764 72.4549 40.0735 72.4549 40.6701C72.4549 41.4821 72.2279 42.203 71.7737 42.8327C71.3365 43.4458 70.7141 43.9264 69.9068 44.2744C69.0995 44.6058 68.1745 44.7716 67.1317 44.7716Z" fill="#976FEA"/>
<path d="M85.8062 32.0943L80.9119 45.219C80.4242 46.5281 79.7094 47.5224 78.7675 48.2019C77.8425 48.8813 76.7324 49.221 75.4374 49.221C74.7478 49.221 73.9909 49.1133 73.1668 48.8979V46.089C73.3686 46.1553 73.6377 46.2133 73.9741 46.263C74.3105 46.3293 74.6132 46.3624 74.8823 46.3624C75.5719 46.3624 76.169 46.1304 76.6736 45.6664C77.1949 45.2024 77.6406 44.4815 78.0107 43.5038L73.3182 32.0943H77.1024L79.701 39.5266L82.022 32.0943H85.8062Z" fill="#976FEA"/>
<path d="M94.1321 27.1228H98.1939V44.523H94.1321V27.1228Z" fill="#976FEA"/>
<path d="M101.449 35.4252C101.449 33.9503 101.415 32.84 101.348 32.0943H104.703C104.804 32.8566 104.854 33.5774 104.854 34.2569H104.905C105.191 33.5443 105.712 32.9643 106.469 32.5169C107.243 32.0694 108.1 31.8457 109.042 31.8457C110.489 31.8457 111.582 32.3263 112.322 33.2874C113.062 34.2486 113.432 35.6737 113.432 37.5629V44.523H109.85V37.538C109.85 36.5438 109.69 35.8229 109.37 35.3755C109.051 34.928 108.538 34.7043 107.831 34.7043C106.99 34.7043 106.309 34.986 105.788 35.5495C105.283 36.0963 105.031 36.8255 105.031 37.7369V44.523H101.449V35.4252Z" fill="#976FEA"/>
<path d="M128.073 32.0943L123.104 44.523H120.026L115.056 32.0943H118.739L121.565 40.1729L124.39 32.0943H128.073Z" fill="#976FEA"/>
<path d="M141.051 39.6012H132.373C132.524 40.3469 132.835 40.9021 133.306 41.2667C133.794 41.6312 134.45 41.8135 135.274 41.8135C135.997 41.8135 136.628 41.6975 137.166 41.4655C137.704 41.2335 138.243 40.8358 138.781 40.2724L140.698 42.0621C140.21 42.8741 139.445 43.5287 138.402 44.0258C137.376 44.523 136.258 44.7716 135.047 44.7716C133.062 44.7716 131.507 44.2081 130.38 43.0812C129.253 41.9378 128.689 40.3635 128.689 38.3583C128.689 36.3366 129.253 34.7457 130.38 33.5857C131.507 32.4257 133.054 31.8457 135.022 31.8457C136.905 31.8457 138.377 32.4257 139.437 33.5857C140.513 34.7292 141.051 36.3118 141.051 38.3335V39.6012ZM137.519 37.0906C137.519 36.3615 137.292 35.7897 136.838 35.3755C136.384 34.9446 135.762 34.7292 134.971 34.7292C134.265 34.7292 133.685 34.9529 133.231 35.4003C132.776 35.8312 132.474 36.4443 132.322 37.2398H137.519V37.0906Z" fill="#976FEA"/>
<path d="M147.695 44.7716C146.551 44.7716 145.55 44.5478 144.693 44.1004C143.835 43.653 143.238 43.0564 142.901 42.3107L145.122 40.8192C145.424 41.2335 145.803 41.5649 146.257 41.8135C146.711 42.0455 147.173 42.1615 147.644 42.1615C148.166 42.1615 148.595 42.0372 148.931 41.7887C149.267 41.5401 149.436 41.2252 149.436 40.8441C149.436 40.6452 149.385 40.4878 149.284 40.3718C149.2 40.2392 149.023 40.1066 148.754 39.9741C148.485 39.8415 148.056 39.6592 147.468 39.4272C145.887 38.8141 144.777 38.2092 144.138 37.6126C143.515 36.9995 143.204 36.2455 143.204 35.3506C143.204 34.29 143.641 33.4449 144.516 32.8151C145.391 32.1689 146.551 31.8457 147.998 31.8457C148.99 31.8457 149.873 32.028 150.647 32.3926C151.437 32.7406 152.085 33.2543 152.589 33.9337L150.52 35.45C149.949 34.7872 149.166 34.4557 148.174 34.4557C147.72 34.4557 147.367 34.5303 147.115 34.6794C146.879 34.8286 146.761 35.0357 146.761 35.3009C146.761 35.4997 146.812 35.6655 146.913 35.798C147.014 35.914 147.215 36.0549 147.518 36.2206C147.838 36.3698 148.368 36.5852 149.108 36.8669C150.15 37.2646 150.949 37.6458 151.504 38.0103C152.059 38.3749 152.446 38.7643 152.665 39.1786C152.9 39.5764 153.018 40.0735 153.018 40.6701C153.018 41.4821 152.791 42.203 152.337 42.8327C151.9 43.4458 151.277 43.9264 150.47 44.2744C149.663 44.6058 148.738 44.7716 147.695 44.7716Z" fill="#976FEA"/>
<path d="M160.542 44.7716C159.179 44.7716 158.12 44.4235 157.363 43.7275C156.623 43.0315 156.253 42.0538 156.253 40.7944V34.7043H153.957V32.0943H156.253V28.9374L159.734 27.9431H159.835V32.0943H163.518V34.7043H159.835V40.2475C159.835 40.9104 160.003 41.3992 160.34 41.7141C160.676 42.0124 161.197 42.1615 161.904 42.1615C162.577 42.1615 163.199 42.0538 163.771 41.8384L163.922 44.2247C163.081 44.5893 161.954 44.7716 160.542 44.7716Z" fill="#976FEA"/>
<path d="M42.4354 44.4756L17.8809 46.5844L7.81055 8.39575L21.3303 36.9719H46.6041L42.4354 44.4756Z" fill="#976FEA"/>
<path d="M43.1866 24.7598H20.7246L24.3702 32.476H38.9035L43.1866 24.7598Z" fill="#976FEA"/>
<path d="M37.7762 12.2705L37.7925 12.2214H14.791L18.4693 19.9376H33.5094L37.7762 12.2705Z" fill="#976FEA"/>
</svg>
