<svg width="158" height="158" viewBox="0 0 158 158" fill="none" xmlns="http://www.w3.org/2000/svg">
<g filter="url(#filter0_d_22_657)">
<path d="M33.1867 2.5H124.813C140.657 2.5 153.5 15.3435 153.5 31.1867V122.813C153.5 138.657 140.657 151.5 124.813 151.5H33.1867C17.3435 151.5 4.5 138.657 4.5 122.813V31.1867C4.5 15.3435 17.3435 2.5 33.1867 2.5Z" fill="white" stroke="#EAEAEA"/>
<path d="M105.866 92.2313L62.5471 95.9517L44.7812 28.5801L68.6324 78.9935H113.22L105.866 92.2313Z" fill="#976FEA"/>
<path d="M107.191 57.4492H67.5645L73.9959 71.062H99.6352L107.191 57.4492Z" fill="#976FEA"/>
<path d="M97.6456 35.4156L97.6744 35.3291H57.0957L63.5848 48.9419H90.1182L97.6456 35.4156Z" fill="#976FEA"/>
<path d="M25.541 114.994H35.6672V117.7H28.9446V120.681H34.9484V123.387H28.9446V127.086H35.6672V129.792H25.541V114.994Z" fill="#976FEA"/>
<path d="M40.5748 130.004C39.8842 130.004 39.2641 129.856 38.7145 129.56C38.1648 129.264 37.735 128.862 37.4249 128.355C37.1149 127.833 36.9598 127.248 36.9598 126.6C36.9598 125.515 37.3967 124.683 38.2705 124.106C39.1443 123.528 40.3986 123.239 42.0335 123.239H43.5133V122.816C43.5133 122.337 43.3583 121.963 43.0482 121.696C42.7382 121.428 42.3154 121.294 41.7798 121.294C41.1456 121.294 40.5325 121.4 39.9406 121.611C39.3628 121.822 38.8836 122.111 38.5031 122.478L37.2135 120.765C37.8195 120.23 38.5313 119.807 39.3487 119.497C40.1802 119.173 41.0188 119.011 41.8644 119.011C43.3019 119.011 44.4364 119.349 45.2679 120.026C46.0994 120.688 46.5152 121.597 46.5152 122.753V127.509C46.5152 127.847 46.5434 128.249 46.5998 128.714C46.6561 129.179 46.7196 129.539 46.79 129.792H44.1052C44.0207 129.595 43.9572 129.419 43.915 129.264C43.8727 129.109 43.8374 128.89 43.8093 128.608H43.767C42.9777 129.539 41.9137 130.004 40.5748 130.004ZM41.3781 127.784C41.9982 127.784 42.5056 127.629 42.9002 127.319C43.3089 126.995 43.5133 126.586 43.5133 126.093V125.205H41.9489C41.2865 125.205 40.7792 125.325 40.4268 125.564C40.0745 125.804 39.8983 126.149 39.8983 126.6C39.8983 126.981 40.0252 127.277 40.2788 127.488C40.5325 127.685 40.899 127.784 41.3781 127.784Z" fill="#976FEA"/>
<path d="M52.2057 130.004C51.2473 130.004 50.4088 129.813 49.69 129.433C48.9713 129.052 48.4709 128.545 48.1891 127.911L50.0494 126.642C50.3031 126.995 50.6202 127.277 51.0007 127.488C51.3812 127.685 51.7688 127.784 52.1634 127.784C52.6003 127.784 52.9597 127.678 53.2416 127.467C53.5234 127.255 53.6644 126.988 53.6644 126.664C53.6644 126.494 53.6221 126.361 53.5375 126.262C53.4671 126.149 53.3191 126.036 53.0936 125.924C52.8681 125.811 52.5087 125.656 52.0154 125.459C50.6907 124.937 49.7605 124.423 49.2249 123.915C48.7035 123.394 48.4428 122.753 48.4428 121.992C48.4428 121.09 48.8092 120.371 49.542 119.835C50.2749 119.286 51.2473 119.011 52.4594 119.011C53.2909 119.011 54.0308 119.166 54.6791 119.476C55.3415 119.772 55.8841 120.209 56.3069 120.787L54.5734 122.076C54.0942 121.512 53.4389 121.23 52.6074 121.23C52.2268 121.23 51.9309 121.294 51.7195 121.421C51.5222 121.548 51.4235 121.724 51.4235 121.949C51.4235 122.118 51.4658 122.259 51.5504 122.372C51.6349 122.471 51.804 122.591 52.0577 122.731C52.3255 122.858 52.7694 123.041 53.3896 123.281C54.2633 123.619 54.9328 123.943 55.3979 124.254C55.863 124.564 56.1871 124.895 56.3703 125.247C56.5676 125.585 56.6663 126.008 56.6663 126.516C56.6663 127.206 56.476 127.819 56.0955 128.355C55.7291 128.876 55.2076 129.285 54.5311 129.581C53.8546 129.863 53.0795 130.004 52.2057 130.004Z" fill="#976FEA"/>
<path d="M67.854 119.222L63.7529 130.384C63.3441 131.498 62.7452 132.343 61.9559 132.921C61.1808 133.499 60.2506 133.788 59.1654 133.788C58.5876 133.788 57.9534 133.696 57.2628 133.513V131.124C57.4319 131.18 57.6574 131.23 57.9393 131.272C58.2212 131.328 58.4749 131.357 58.7004 131.357C59.2782 131.357 59.7785 131.159 60.2013 130.765C60.6382 130.37 61.0117 129.757 61.3217 128.926L57.3897 119.222H60.5607L62.7381 125.543L64.683 119.222H67.854Z" fill="#976FEA"/>
<path d="M74.8308 114.994H78.2344V129.792H74.8308V114.994Z" fill="#976FEA"/>
<path d="M80.9616 122.055C80.9616 120.801 80.9334 119.856 80.8771 119.222H83.6887C83.7733 119.87 83.8155 120.484 83.8155 121.061H83.8578C84.0974 120.455 84.5343 119.962 85.1685 119.582C85.8168 119.201 86.5356 119.011 87.3248 119.011C88.5368 119.011 89.4529 119.419 90.073 120.237C90.6931 121.054 91.0032 122.266 91.0032 123.873V129.792H88.0013V123.852C88.0013 123.006 87.8674 122.393 87.5996 122.013C87.3319 121.632 86.902 121.442 86.3101 121.442C85.6054 121.442 85.0346 121.681 84.5977 122.161C84.1749 122.626 83.9635 123.246 83.9635 124.021V129.792H80.9616V122.055Z" fill="#976FEA"/>
<path d="M103.272 119.222L99.1075 129.792H96.5284L92.3638 119.222H95.4502L97.8179 126.093L100.186 119.222H103.272Z" fill="#976FEA"/>
<path d="M114.147 125.607H106.875C107.002 126.241 107.262 126.713 107.657 127.023C108.066 127.333 108.615 127.488 109.306 127.488C109.912 127.488 110.44 127.389 110.891 127.192C111.342 126.995 111.793 126.656 112.244 126.177L113.851 127.699C113.442 128.39 112.801 128.947 111.927 129.369C111.067 129.792 110.13 130.004 109.116 130.004C107.452 130.004 106.149 129.524 105.205 128.566C104.26 127.594 103.788 126.255 103.788 124.549C103.788 122.83 104.26 121.477 105.205 120.491C106.149 119.504 107.445 119.011 109.094 119.011C110.673 119.011 111.906 119.504 112.794 120.491C113.696 121.463 114.147 122.809 114.147 124.528V125.607ZM111.187 123.471C111.187 122.851 110.997 122.365 110.616 122.013C110.236 121.646 109.715 121.463 109.052 121.463C108.46 121.463 107.974 121.653 107.593 122.034C107.213 122.4 106.959 122.922 106.832 123.598H111.187V123.471Z" fill="#976FEA"/>
<path d="M119.714 130.004C118.755 130.004 117.917 129.813 117.198 129.433C116.479 129.052 115.979 128.545 115.697 127.911L117.558 126.642C117.811 126.995 118.128 127.277 118.509 127.488C118.889 127.685 119.277 127.784 119.672 127.784C120.108 127.784 120.468 127.678 120.75 127.467C121.032 127.255 121.173 126.988 121.173 126.664C121.173 126.494 121.13 126.361 121.046 126.262C120.975 126.149 120.827 126.036 120.602 125.924C120.376 125.811 120.017 125.656 119.524 125.459C118.199 124.937 117.269 124.423 116.733 123.915C116.212 123.394 115.951 122.753 115.951 121.992C115.951 121.09 116.317 120.371 117.05 119.835C117.783 119.286 118.756 119.011 119.968 119.011C120.799 119.011 121.539 119.166 122.187 119.476C122.85 119.772 123.392 120.209 123.815 120.787L122.082 122.076C121.602 121.512 120.947 121.23 120.116 121.23C119.735 121.23 119.439 121.294 119.228 121.421C119.03 121.548 118.932 121.724 118.932 121.949C118.932 122.118 118.974 122.259 119.059 122.372C119.143 122.471 119.312 122.591 119.566 122.731C119.834 122.858 120.278 123.041 120.898 123.281C121.771 123.619 122.441 123.943 122.906 124.254C123.371 124.564 123.695 124.895 123.878 125.247C124.076 125.585 124.174 126.008 124.174 126.516C124.174 127.206 123.984 127.819 123.604 128.355C123.237 128.876 122.716 129.285 122.039 129.581C121.363 129.863 120.588 130.004 119.714 130.004Z" fill="#976FEA"/>
<path d="M130.479 130.004C129.337 130.004 128.449 129.708 127.815 129.116C127.195 128.524 126.885 127.692 126.885 126.621V121.442H124.961V119.222H126.885V116.537L129.802 115.692H129.887V119.222H132.973V121.442H129.887V126.156C129.887 126.72 130.028 127.136 130.31 127.403C130.592 127.657 131.028 127.784 131.62 127.784C132.184 127.784 132.706 127.692 133.185 127.509L133.312 129.539C132.607 129.849 131.663 130.004 130.479 130.004Z" fill="#976FEA"/>
</g>
<defs>
<filter id="filter0_d_22_657" x="0" y="0" width="158" height="158" filterUnits="userSpaceOnUse" color-interpolation-filters="sRGB">
<feFlood flood-opacity="0" result="BackgroundImageFix"/>
<feColorMatrix in="SourceAlpha" type="matrix" values="0 0 0 0 0 0 0 0 0 0 0 0 0 0 0 0 0 0 127 0" result="hardAlpha"/>
<feOffset dy="2"/>
<feGaussianBlur stdDeviation="2"/>
<feComposite in2="hardAlpha" operator="out"/>
<feColorMatrix type="matrix" values="0 0 0 0 0 0 0 0 0 0 0 0 0 0 0 0 0 0 0.2 0"/>
<feBlend mode="normal" in2="BackgroundImageFix" result="effect1_dropShadow_22_657"/>
<feBlend mode="normal" in="SourceGraphic" in2="effect1_dropShadow_22_657" result="shape"/>
</filter>
</defs>
</svg>
