<svg width="18" height="19" viewBox="0 0 18 19" fill="none" xmlns="http://www.w3.org/2000/svg">
<path d="M9 17C13.1421 17 16.5 13.6421 16.5 9.5C16.5 5.35786 13.1421 2 9 2C4.85786 2 1.5 5.35786 1.5 9.5C1.5 13.6421 4.85786 17 9 17Z" fill="#26C95D"/>
<path fill-rule="evenodd" clip-rule="evenodd" d="M9 3C5.41015 3 2.5 5.91015 2.5 9.5C2.5 13.0899 5.41015 16 9 16C12.5899 16 15.5 13.0899 15.5 9.5C15.5 5.91015 12.5899 3 9 3ZM0.5 9.5C0.5 4.80558 4.30558 1 9 1C13.6944 1 17.5 4.80558 17.5 9.5C17.5 14.1944 13.6944 18 9 18C4.30558 18 0.5 14.1944 0.5 9.5ZM13.0821 6.54289C13.4726 6.93342 13.4726 7.56658 13.0821 7.95711L8.58211 12.4571C8.19158 12.8476 7.55842 12.8476 7.16789 12.4571L4.91789 10.2071C4.52737 9.81658 4.52737 9.18342 4.91789 8.79289C5.30842 8.40237 5.94158 8.40237 6.33211 8.79289L7.875 10.3358L11.6679 6.54289C12.0584 6.15237 12.6916 6.15237 13.0821 6.54289Z" fill="white"/>
<path fill-rule="evenodd" clip-rule="evenodd" d="M9 16C12.5899 16 15.5 13.0899 15.5 9.5C15.5 5.91015 12.5899 3 9 3C5.41015 3 2.5 5.91015 2.5 9.5C2.5 13.0899 5.41015 16 9 16ZM9 18.5C13.9706 18.5 18 14.4706 18 9.5C18 4.52944 13.9706 0.5 9 0.5C4.02944 0.5 0 4.52944 0 9.5C0 14.4706 4.02944 18.5 9 18.5Z" fill="#26C95D"/>
</svg>
