<svg width="146" height="82" viewBox="0 0 146 82" fill="none" xmlns="http://www.w3.org/2000/svg">
    <rect x="0.748031" y="0.248031" width="144.504" height="81.5039" rx="3.72047" fill="#F3F3F3" />
    <g clip-path="url(#clip0_2037_22901)">
        <path fill-rule="evenodd" clip-rule="evenodd"
            d="M66 32.0002C66 31.735 66.1054 31.4807 66.2929 31.2931C66.4804 31.1056 66.7348 31.0002 67 31.0002H79C79.2652 31.0002 79.5196 31.1056 79.7071 31.2931C79.8946 31.4807 80 31.735 80 32.0002C80 32.2655 79.8946 32.5198 79.7071 32.7074C79.5196 32.8949 79.2652 33.0002 79 33.0002H67C66.7348 33.0002 66.4804 32.8949 66.2929 32.7074C66.1054 32.5198 66 32.2655 66 32.0002ZM66 34.0002C65.4696 34.0002 64.9609 34.211 64.5858 34.586C64.2107 34.9611 64 35.4698 64 36.0002V48.0002C64 48.5307 64.2107 49.0394 64.5858 49.4145C64.9609 49.7895 65.4696 50.0002 66 50.0002H80C80.5304 50.0002 81.0391 49.7895 81.4142 49.4145C81.7893 49.0394 82 48.5307 82 48.0002V36.0002C82 35.4698 81.7893 34.9611 81.4142 34.586C81.0391 34.211 80.5304 34.0002 80 34.0002H66ZM80 42.6862V36.0002H66V48.0002H66.929L75.237 39.6912C75.3531 39.5751 75.4909 39.483 75.6426 39.4202C75.7942 39.3574 75.9568 39.325 76.121 39.325C76.2852 39.325 76.4478 39.3574 76.5994 39.4202C76.7511 39.483 76.8889 39.5751 77.005 39.6912L80 42.6862ZM69.5 41.0002C69.8978 41.0002 70.2794 40.8422 70.5607 40.5609C70.842 40.2796 71 39.8981 71 39.5002C71 39.1024 70.842 38.7209 70.5607 38.4396C70.2794 38.1583 69.8978 38.0002 69.5 38.0002C69.1022 38.0002 68.7206 38.1583 68.4393 38.4396C68.158 38.7209 68 39.1024 68 39.5002C68 39.8981 68.158 40.2796 68.4393 40.5609C68.7206 40.8422 69.1022 41.0002 69.5 41.0002Z"
            fill="#BFBFBF" />
    </g>
    <rect x="0.748031" y="0.248031" width="144.504" height="81.5039" rx="3.72047" stroke="#BFBFBF"
        stroke-width="0.496063" stroke-dasharray="2.48 2.48" />
    <defs>
        <clipPath id="clip0_2037_22901">
            <rect width="24" height="24" fill="white" transform="translate(61 29)" />
        </clipPath>
    </defs>
</svg>
    