<svg width="125" height="125" viewBox="0 0 125 125" fill="none" xmlns="http://www.w3.org/2000/svg">
<rect x="0.5" y="0.5" width="124" height="124" rx="7.5" fill="#F3F3F3"/>
<g clip-path="url(#clip0_419_7272)">
<path fill-rule="evenodd" clip-rule="evenodd" d="M50.25 46.75C50.25 46.2859 50.4344 45.8408 50.7626 45.5126C51.0908 45.1844 51.5359 45 52 45H73C73.4641 45 73.9093 45.1844 74.2374 45.5126C74.5656 45.8408 74.75 46.2859 74.75 46.75C74.75 47.2141 74.5656 47.6592 74.2374 47.9874C73.9093 48.3156 73.4641 48.5 73 48.5H52C51.5359 48.5 51.0908 48.3156 50.7626 47.9874C50.4344 47.6592 50.25 47.2141 50.25 46.75ZM50.25 50.25C49.3217 50.25 48.4315 50.6187 47.7751 51.2751C47.1187 51.9315 46.75 52.8217 46.75 53.75V74.75C46.75 75.6783 47.1187 76.5685 47.7751 77.2249C48.4315 77.8812 49.3217 78.25 50.25 78.25H74.75C75.6783 78.25 76.5685 77.8812 77.2249 77.2249C77.8813 76.5685 78.25 75.6783 78.25 74.75V53.75C78.25 52.8217 77.8813 51.9315 77.2249 51.2751C76.5685 50.6187 75.6783 50.25 74.75 50.25H50.25ZM74.75 65.4505V53.75H50.25V74.75H51.8757L66.4148 60.2092C66.6179 60.0061 66.8591 59.8449 67.1245 59.7349C67.3899 59.6249 67.6744 59.5683 67.9618 59.5683C68.2491 59.5683 68.5336 59.6249 68.799 59.7349C69.0644 59.8449 69.3056 60.0061 69.5087 60.2092L74.75 65.4505ZM56.375 62.5C57.0712 62.5 57.7389 62.2234 58.2312 61.7312C58.7234 61.2389 59 60.5712 59 59.875C59 59.1788 58.7234 58.5111 58.2312 58.0188C57.7389 57.5266 57.0712 57.25 56.375 57.25C55.6788 57.25 55.0111 57.5266 54.5188 58.0188C54.0266 58.5111 53.75 59.1788 53.75 59.875C53.75 60.5712 54.0266 61.2389 54.5188 61.7312C55.0111 62.2234 55.6788 62.5 56.375 62.5Z" fill="#BFBFBF"/>
</g>
<rect x="0.5" y="0.5" width="124" height="124" rx="7.5" stroke="#BFBFBF" stroke-dasharray="5 5"/>
<defs>
<clipPath id="clip0_419_7272">
<rect width="42" height="42" fill="white" transform="translate(41.5 41.5)"/>
</clipPath>
</defs>
</svg>
