<svg width="20" height="21" viewBox="0 0 20 21" fill="none" xmlns="http://www.w3.org/2000/svg">
<path d="M12.5003 16.3334C12.5003 17.7141 11.381 18.8334 10.0003 18.8334C8.61954 18.8334 7.50026 17.7141 7.50026 16.3334M11.4973 5.69888C11.8603 5.32395 12.0836 4.8131 12.0836 4.25008C12.0836 3.09949 11.1508 2.16675 10.0003 2.16675C8.84966 2.16675 7.91692 3.09949 7.91692 4.25008C7.91692 4.8131 8.14026 5.32395 8.50317 5.69888M15.0003 9.83341C15.0003 8.68414 14.4735 7.58194 13.5358 6.76929C12.5981 5.95663 11.3263 5.50008 10.0003 5.50008C8.67417 5.50008 7.4024 5.95663 6.46472 6.76929C5.52704 7.58194 5.00026 8.68414 5.00026 9.83341C5.00026 11.7349 4.5287 13.1256 3.94031 14.1206C3.2697 15.2548 2.9344 15.8218 2.94764 15.9573C2.96279 16.1123 2.99069 16.1612 3.11637 16.2531C3.22623 16.3334 3.77818 16.3334 4.88208 16.3334H15.1184C16.2223 16.3334 16.7743 16.3334 16.8841 16.2531C17.0098 16.1612 17.0377 16.1123 17.0529 15.9573C17.0661 15.8218 16.7308 15.2548 16.0602 14.1206C15.4718 13.1256 15.0003 11.7349 15.0003 9.83341Z" stroke="black" stroke-linecap="round" stroke-linejoin="round"/>
</svg>
