<svg width="19" height="18" viewBox="0 0 19 18" fill="none" xmlns="http://www.w3.org/2000/svg">
<path d="M15.6447 6.53474C15.6021 6.43195 15.53 6.3441 15.4375 6.2823C15.345 6.22049 15.2363 6.1875 15.125 6.1875H3.875C3.76375 6.1875 3.65499 6.22049 3.56249 6.2823C3.46999 6.34411 3.39789 6.43196 3.35532 6.53475C3.31274 6.63753 3.3016 6.75063 3.32331 6.85975C3.34502 6.96886 3.39859 7.06909 3.47726 7.14776L9.10226 12.7727C9.15449 12.825 9.2165 12.8664 9.28475 12.8947C9.35299 12.923 9.42613 12.9375 9.5 12.9375C9.57387 12.9375 9.64702 12.923 9.71526 12.8947C9.7835 12.8664 9.84551 12.825 9.89774 12.7727L15.5227 7.14776C15.6014 7.06909 15.655 6.96886 15.6767 6.85974C15.6984 6.75063 15.6873 6.63752 15.6447 6.53474Z" fill="currentColor"/>
</svg>
