<svg width="570" height="660" viewBox="0 0 570 660" fill="none" xmlns="http://www.w3.org/2000/svg">
<g clip-path="url(#clip0_72_1539)">
<rect width="570" height="660" fill="white"/>
<path d="M487.082 85.0557L288.863 187.077L38 -41.5198L276.257 108.232L489.708 18.253L487.082 85.0557Z" fill="#6B53FF" fill-opacity="0.1"/>
<path d="M407.824 -54.147L218.121 25.821L282.413 66.2754L405.154 14.5348L407.824 -54.147Z" fill="#6B53FF" fill-opacity="0.1"/>
<path d="M307.897 -121.37L307.822 -121.768L113.562 -39.8793L178.131 0.458622L305.152 -53.0862L307.897 -121.37Z" fill="#6B53FF" fill-opacity="0.1"/>
<path d="M360.507 776.318L123.214 912.419L-204 642.595L101.706 815.617L358.729 693.628L360.507 776.318Z" fill="#6B53FF" fill-opacity="0.1"/>
<path d="M252.089 608.294L23.6621 716.711L106.159 763.455L253.955 693.308L252.089 608.294Z" fill="#6B53FF" fill-opacity="0.1"/>
<path d="M123.542 530.269L123.42 529.781L-110.494 640.802L-27.6652 687.389L125.285 614.795L123.542 530.269Z" fill="#6B53FF" fill-opacity="0.1"/>
</g>
<defs>
<clipPath id="clip0_72_1539">
<rect width="570" height="660" fill="white"/>
</clipPath>
</defs>
</svg>
