<svg width="375" height="812" viewBox="0 0 375 812" fill="none" xmlns="http://www.w3.org/2000/svg">
<g clip-path="url(#clip0_2030_22522)">
<rect width="375" height="812" fill="white"/>
<path d="M378.021 104.644L178.064 230.161L-75 -51.082L165.347 133.158L380.67 22.4566L378.021 104.644Z" fill="#6B53FF" fill-opacity="0.1"/>
<path d="M298.068 -66.6173L106.701 31.7676L171.557 81.5387L295.375 17.882L298.068 -66.6173Z" fill="#6B53FF" fill-opacity="0.1"/>
<path d="M197.263 -149.322L197.188 -149.812L1.22461 -49.0637L66.3595 0.564112L194.495 -65.3123L197.263 -149.322Z" fill="#6B53FF" fill-opacity="0.1"/>
<path d="M380.459 890.887L141.084 1058.33L-189 726.368L119.388 939.238L378.665 789.154L380.459 890.887Z" fill="#6B53FF" fill-opacity="0.1"/>
<path d="M271.089 684.167L40.6582 817.553L123.878 875.063L272.971 788.76L271.089 684.167Z" fill="#6B53FF" fill-opacity="0.1"/>
<path d="M141.415 588.173L141.292 587.573L-94.6738 724.162L-11.1184 781.478L143.173 692.165L141.415 588.173Z" fill="#6B53FF" fill-opacity="0.1"/>
</g>
<defs>
<clipPath id="clip0_2030_22522">
<rect width="375" height="812" fill="white"/>
</clipPath>
</defs>
</svg>
