<svg width="180" height="180" viewBox="0 0 180 180" fill="none" xmlns="http://www.w3.org/2000/svg">
<path d="M126.829 111.547L66.7514 116.707L42.1123 23.2702L75.1911 93.1877H137.029L126.829 111.547Z" fill="#976FEA"/>
<path d="M128.669 63.3083H73.7109L82.6306 82.1876H118.189L128.669 63.3083Z" fill="#976FEA"/>
<path d="M115.429 32.7503L115.469 32.6303H59.1914L68.1911 51.5096H104.99L115.429 32.7503Z" fill="#976FEA"/>
<path d="M15.4287 130.629H29.4905V134.331H20.1551V138.409H28.4924V142.112H20.1551V147.174H29.4905V150.876H15.4287V130.629Z" fill="#976FEA"/>
<path d="M36.3056 151.165C35.3466 151.165 34.4855 150.963 33.7222 150.558C32.959 150.153 32.362 149.603 31.9315 148.909C31.5009 148.196 31.2856 147.395 31.2856 146.508C31.2856 145.024 31.8923 143.886 33.1057 143.095C34.3191 142.305 36.061 141.909 38.3312 141.909H40.3862V141.331C40.3862 140.675 40.1709 140.164 39.7403 139.798C39.3098 139.431 38.7226 139.248 37.9789 139.248C37.0982 139.248 36.2469 139.393 35.4249 139.682C34.6225 139.971 33.9571 140.367 33.4287 140.868L31.6379 138.525C32.4795 137.792 33.4678 137.214 34.6029 136.79C35.7576 136.346 36.9221 136.124 38.0964 136.124C40.0926 136.124 41.6681 136.587 42.8228 137.513C43.9775 138.419 44.5548 139.663 44.5548 141.244V147.752C44.5548 148.215 44.5939 148.765 44.6722 149.401C44.7505 150.037 44.8386 150.529 44.9364 150.876H41.2082C41.0907 150.606 41.0027 150.365 40.9439 150.153C40.8852 149.941 40.8363 149.642 40.7972 149.256H40.7384C39.6425 150.529 38.1649 151.165 36.3056 151.165ZM37.4212 148.128C38.2823 148.128 38.9868 147.916 39.5348 147.492C40.1024 147.048 40.3862 146.489 40.3862 145.814V144.599H38.2138C37.2939 144.599 36.5894 144.763 36.1001 145.091C35.6108 145.419 35.3662 145.891 35.3662 146.508C35.3662 147.029 35.5423 147.434 35.8946 147.723C36.2469 147.993 36.7557 148.128 37.4212 148.128Z" fill="#976FEA"/>
<path d="M52.457 151.165C51.1262 151.165 49.9617 150.905 48.9636 150.384C47.9654 149.864 47.2707 149.169 46.8793 148.302L49.4626 146.566C49.8149 147.048 50.2553 147.434 50.7837 147.723C51.3121 147.993 51.8503 148.128 52.3983 148.128C53.005 148.128 53.5041 147.984 53.8955 147.694C54.2869 147.405 54.4826 147.039 54.4826 146.595C54.4826 146.364 54.4239 146.181 54.3065 146.046C54.2086 145.891 54.0031 145.737 53.69 145.583C53.3768 145.429 52.8778 145.216 52.1928 144.946C50.3531 144.233 49.0614 143.529 48.3177 142.835C47.5936 142.121 47.2315 141.244 47.2315 140.203C47.2315 138.969 47.7404 137.985 48.7581 137.252C49.7758 136.5 51.1262 136.124 52.8093 136.124C53.964 136.124 54.9915 136.336 55.8917 136.761C56.8116 137.166 57.5651 137.763 58.1522 138.554L55.7449 140.318C55.0795 139.547 54.1695 139.161 53.0148 139.161C52.4864 139.161 52.0754 139.248 51.7818 139.422C51.5078 139.595 51.3708 139.836 51.3708 140.145C51.3708 140.376 51.4295 140.569 51.547 140.723C51.6644 140.858 51.8992 141.022 52.2515 141.215C52.6234 141.389 53.2398 141.639 54.101 141.967C55.3144 142.43 56.244 142.873 56.8899 143.298C57.5357 143.722 57.9858 144.175 58.2403 144.657C58.5143 145.12 58.6512 145.698 58.6512 146.393C58.6512 147.338 58.387 148.176 57.8586 148.909C57.3498 149.623 56.6256 150.182 55.6862 150.587C54.7468 150.972 53.6704 151.165 52.457 151.165Z" fill="#976FEA"/>
<path d="M74.1873 136.414L68.4921 151.686C67.9246 153.209 67.0928 154.366 65.9968 155.157C64.9204 155.948 63.6287 156.343 62.1217 156.343C61.3193 156.343 60.4386 156.218 59.4797 155.967V152.698C59.7145 152.775 60.0276 152.843 60.4191 152.901C60.8105 152.978 61.1628 153.016 61.4759 153.016C62.2783 153.016 62.9731 152.747 63.5602 152.207C64.1669 151.667 64.6856 150.828 65.1161 149.69L59.6558 136.414H64.0593L67.083 145.062L69.7838 136.414H74.1873Z" fill="#976FEA"/>
<path d="M83.8757 130.629H88.6021V150.876H83.8757V130.629Z" fill="#976FEA"/>
<path d="M92.3893 140.29C92.3893 138.573 92.3502 137.281 92.2719 136.414H96.1763C96.2937 137.301 96.3525 138.139 96.3525 138.93H96.4112C96.7439 138.101 97.3506 137.426 98.2313 136.905C99.1315 136.385 100.13 136.124 101.226 136.124C102.909 136.124 104.181 136.684 105.042 137.802C105.903 138.92 106.334 140.579 106.334 142.777V150.876H102.165V142.748C102.165 141.591 101.979 140.752 101.607 140.232C101.235 139.711 100.639 139.451 99.8165 139.451C98.838 139.451 98.0453 139.778 97.4386 140.434C96.8515 141.07 96.5579 141.919 96.5579 142.98V150.876H92.3893V140.29Z" fill="#976FEA"/>
<path d="M123.371 136.414L117.588 150.876H114.006L108.223 136.414H112.509L115.797 145.814L119.085 136.414H123.371Z" fill="#976FEA"/>
<path d="M138.473 145.149H128.374C128.55 146.017 128.912 146.663 129.46 147.087C130.028 147.511 130.791 147.723 131.75 147.723C132.591 147.723 133.325 147.588 133.952 147.318C134.578 147.048 135.204 146.586 135.83 145.93L138.062 148.012C137.494 148.957 136.603 149.719 135.39 150.298C134.196 150.876 132.895 151.165 131.486 151.165C129.176 151.165 127.366 150.51 126.055 149.198C124.743 147.868 124.088 146.036 124.088 143.703C124.088 141.35 124.743 139.499 126.055 138.149C127.366 136.799 129.166 136.124 131.456 136.124C133.648 136.124 135.361 136.799 136.594 138.149C137.846 139.48 138.473 141.321 138.473 143.674V145.149ZM134.363 142.227C134.363 141.379 134.098 140.714 133.57 140.232C133.042 139.73 132.317 139.48 131.398 139.48C130.576 139.48 129.9 139.74 129.372 140.261C128.844 140.762 128.491 141.475 128.315 142.401H134.363V142.227Z" fill="#976FEA"/>
<path d="M146.203 151.165C144.872 151.165 143.708 150.905 142.71 150.384C141.712 149.864 141.017 149.169 140.625 148.302L143.209 146.566C143.561 147.048 144.001 147.434 144.53 147.723C145.058 147.993 145.596 148.128 146.144 148.128C146.751 148.128 147.25 147.984 147.642 147.694C148.033 147.405 148.229 147.039 148.229 146.595C148.229 146.364 148.17 146.181 148.053 146.046C147.955 145.891 147.749 145.737 147.436 145.583C147.123 145.429 146.624 145.216 145.939 144.946C144.099 144.233 142.808 143.529 142.064 142.835C141.34 142.121 140.978 141.244 140.978 140.203C140.978 138.969 141.487 137.985 142.504 137.252C143.522 136.5 144.872 136.124 146.555 136.124C147.71 136.124 148.738 136.336 149.638 136.761C150.558 137.166 151.311 137.763 151.898 138.554L149.491 140.318C148.826 139.547 147.916 139.161 146.761 139.161C146.233 139.161 145.822 139.248 145.528 139.422C145.254 139.595 145.117 139.836 145.117 140.145C145.117 140.376 145.176 140.569 145.293 140.723C145.411 140.858 145.645 141.022 145.998 141.215C146.37 141.389 146.986 141.639 147.847 141.967C149.061 142.43 149.99 142.873 150.636 143.298C151.282 143.722 151.732 144.175 151.986 144.657C152.26 145.12 152.397 145.698 152.397 146.393C152.397 147.338 152.133 148.176 151.605 148.909C151.096 149.623 150.372 150.182 149.432 150.587C148.493 150.972 147.417 151.165 146.203 151.165Z" fill="#976FEA"/>
<path d="M161.152 151.165C159.567 151.165 158.334 150.76 157.453 149.95C156.592 149.141 156.161 148.003 156.161 146.537V139.451H153.49V136.414H156.161V132.74L160.213 131.583H160.33V136.414H164.616V139.451H160.33V145.901C160.33 146.672 160.526 147.241 160.917 147.608C161.309 147.955 161.915 148.128 162.737 148.128C163.52 148.128 164.244 148.003 164.91 147.752L165.086 150.529C164.107 150.953 162.796 151.165 161.152 151.165Z" fill="#976FEA"/>
</svg>
