
<svg width="80" height="80" viewBox="0 0 80 80" fill="none" xmlns="http://www.w3.org/2000/svg">
<path fill-rule="evenodd" clip-rule="evenodd" d="M25.3562 38.1425L34.2419 47.034L55.2533 26.0225C55.5709 25.7001 55.9492 25.4437 56.3664 25.2683C56.7836 25.0928 57.2314 25.0016 57.684 25C58.1366 24.9985 58.585 25.0865 59.0034 25.2591C59.4218 25.4317 59.8018 25.6854 60.1217 26.0056C60.4415 26.3259 60.6948 26.7062 60.8669 27.1248C61.039 27.5434 61.1265 27.9919 61.1244 28.4445C61.1223 28.8971 61.0306 29.3448 60.8547 29.7618C60.6787 30.1787 60.4219 30.5567 60.0991 30.874L36.6705 54.3083C36.3528 54.6284 35.9749 54.8825 35.5586 55.0559C35.1423 55.2293 34.6958 55.3186 34.2448 55.3186C33.7938 55.3186 33.3472 55.2293 32.9309 55.0559C32.5146 54.8825 32.1367 54.6284 31.819 54.3083L20.5048 42.994C19.8614 42.3506 19.5 41.4781 19.5 40.5683C19.5 39.6584 19.8614 38.7859 20.5048 38.1425C20.8233 37.824 21.2015 37.5713 21.6177 37.3989C22.0339 37.2265 22.48 37.1378 22.9305 37.1378C23.381 37.1378 23.8271 37.2265 24.2433 37.3989C24.6595 37.5713 25.0376 37.824 25.3562 38.1425Z" fill="#36CA68"/>
<rect x="3" y="3" width="74" height="74" rx="37" stroke="#26C95D" stroke-width="6"/>
</svg>
